<mxfile host="app.diagrams.net" modified="2021-09-24T10:55:37.940Z" agent="5.0 (Macintosh; Intel Mac OS X 11_0_0) AppleWebKit/537.36 (KHTML, like Gecko) Chrome/86.0.4240.198 Safari/537.36 Edg/86.0.622.69" etag="mWMp8yUbc49l5A4J-EDd" version="15.2.5" type="github">
  <diagram id="BjjD-GvI8XrJ0HFwkWRa" name="第 1 页">
    <mxGraphModel dx="802" dy="439" grid="1" gridSize="10" guides="1" tooltips="1" connect="1" arrows="1" fold="1" page="1" pageScale="1" pageWidth="827" pageHeight="1169" math="0" shadow="0">
      <root>
        <mxCell id="0" />
        <mxCell id="1" parent="0" />
        <mxCell id="KXBL7dC9lSTYUjsCXAN4-5" style="edgeStyle=orthogonalEdgeStyle;rounded=0;orthogonalLoop=1;jettySize=auto;html=1;entryX=0.5;entryY=0;entryDx=0;entryDy=0;exitX=1;exitY=0.5;exitDx=0;exitDy=0;strokeColor=#97D077;" edge="1" parent="1" source="KXBL7dC9lSTYUjsCXAN4-44" target="KXBL7dC9lSTYUjsCXAN4-3">
          <mxGeometry relative="1" as="geometry">
            <mxPoint x="190" y="110" as="sourcePoint" />
          </mxGeometry>
        </mxCell>
        <mxCell id="KXBL7dC9lSTYUjsCXAN4-25" value="&lt;b&gt;1.写leader&lt;/b&gt;" style="edgeLabel;html=1;align=center;verticalAlign=middle;resizable=0;points=[];" vertex="1" connectable="0" parent="KXBL7dC9lSTYUjsCXAN4-5">
          <mxGeometry x="-0.2717" y="-1" relative="1" as="geometry">
            <mxPoint as="offset" />
          </mxGeometry>
        </mxCell>
        <mxCell id="KXBL7dC9lSTYUjsCXAN4-19" value="" style="edgeStyle=orthogonalEdgeStyle;rounded=0;orthogonalLoop=1;jettySize=auto;html=1;fillColor=#99CCFF;strokeColor=#66B2FF;" edge="1" parent="1" source="KXBL7dC9lSTYUjsCXAN4-2" target="KXBL7dC9lSTYUjsCXAN4-3">
          <mxGeometry relative="1" as="geometry" />
        </mxCell>
        <mxCell id="KXBL7dC9lSTYUjsCXAN4-23" value="&lt;b&gt;3.ACK&lt;/b&gt;" style="edgeLabel;html=1;align=center;verticalAlign=middle;resizable=0;points=[];" vertex="1" connectable="0" parent="KXBL7dC9lSTYUjsCXAN4-19">
          <mxGeometry x="-0.1395" relative="1" as="geometry">
            <mxPoint as="offset" />
          </mxGeometry>
        </mxCell>
        <mxCell id="KXBL7dC9lSTYUjsCXAN4-2" value="follower" style="rounded=1;whiteSpace=wrap;html=1;fillColor=#99CCFF;" vertex="1" parent="1">
          <mxGeometry x="600" y="240" width="120" height="60" as="geometry" />
        </mxCell>
        <mxCell id="KXBL7dC9lSTYUjsCXAN4-18" style="edgeStyle=orthogonalEdgeStyle;rounded=0;orthogonalLoop=1;jettySize=auto;html=1;exitX=1;exitY=0.25;exitDx=0;exitDy=0;entryX=0;entryY=0.25;entryDx=0;entryDy=0;strokeColor=#CC99FF;" edge="1" parent="1" source="KXBL7dC9lSTYUjsCXAN4-3" target="KXBL7dC9lSTYUjsCXAN4-2">
          <mxGeometry relative="1" as="geometry" />
        </mxCell>
        <mxCell id="KXBL7dC9lSTYUjsCXAN4-22" value="&lt;b&gt;2.Propoes&lt;/b&gt;" style="edgeLabel;html=1;align=center;verticalAlign=middle;resizable=0;points=[];" vertex="1" connectable="0" parent="KXBL7dC9lSTYUjsCXAN4-18">
          <mxGeometry x="-0.0233" y="2" relative="1" as="geometry">
            <mxPoint y="1" as="offset" />
          </mxGeometry>
        </mxCell>
        <mxCell id="KXBL7dC9lSTYUjsCXAN4-21" style="edgeStyle=orthogonalEdgeStyle;rounded=0;orthogonalLoop=1;jettySize=auto;html=1;exitX=1;exitY=0.75;exitDx=0;exitDy=0;entryX=0;entryY=0.75;entryDx=0;entryDy=0;strokeColor=#FF0000;" edge="1" parent="1" source="KXBL7dC9lSTYUjsCXAN4-3" target="KXBL7dC9lSTYUjsCXAN4-2">
          <mxGeometry relative="1" as="geometry" />
        </mxCell>
        <mxCell id="KXBL7dC9lSTYUjsCXAN4-24" value="&lt;b&gt;4.commit&lt;/b&gt;" style="edgeLabel;html=1;align=center;verticalAlign=middle;resizable=0;points=[];" vertex="1" connectable="0" parent="KXBL7dC9lSTYUjsCXAN4-21">
          <mxGeometry x="0.0233" y="-1" relative="1" as="geometry">
            <mxPoint y="1" as="offset" />
          </mxGeometry>
        </mxCell>
        <mxCell id="KXBL7dC9lSTYUjsCXAN4-27" style="edgeStyle=orthogonalEdgeStyle;rounded=0;orthogonalLoop=1;jettySize=auto;html=1;exitX=0.75;exitY=0;exitDx=0;exitDy=0;entryX=1;entryY=0.25;entryDx=0;entryDy=0;strokeColor=#CC99FF;" edge="1" parent="1" source="KXBL7dC9lSTYUjsCXAN4-3" target="KXBL7dC9lSTYUjsCXAN4-44">
          <mxGeometry relative="1" as="geometry">
            <mxPoint x="190" y="100" as="targetPoint" />
          </mxGeometry>
        </mxCell>
        <mxCell id="KXBL7dC9lSTYUjsCXAN4-29" value="&lt;b&gt;5.返回成功&lt;/b&gt;" style="edgeLabel;html=1;align=center;verticalAlign=middle;resizable=0;points=[];" vertex="1" connectable="0" parent="KXBL7dC9lSTYUjsCXAN4-27">
          <mxGeometry x="0.2593" y="-1" relative="1" as="geometry">
            <mxPoint x="1" as="offset" />
          </mxGeometry>
        </mxCell>
        <mxCell id="KXBL7dC9lSTYUjsCXAN4-3" value="&lt;b&gt;leader(过半ACK后就发送commit)&lt;/b&gt;" style="rounded=1;whiteSpace=wrap;html=1;fillColor=#FF66FF;" vertex="1" parent="1">
          <mxGeometry x="354" y="237.5" width="120" height="60" as="geometry" />
        </mxCell>
        <mxCell id="KXBL7dC9lSTYUjsCXAN4-4" value="follower" style="rounded=1;whiteSpace=wrap;html=1;fillColor=#99CCFF;" vertex="1" parent="1">
          <mxGeometry x="100" y="240" width="120" height="55" as="geometry" />
        </mxCell>
        <mxCell id="KXBL7dC9lSTYUjsCXAN4-8" value="" style="endArrow=classic;html=1;exitX=0;exitY=0.25;exitDx=0;exitDy=0;entryX=1;entryY=0.25;entryDx=0;entryDy=0;strokeColor=#CC99FF;" edge="1" parent="1" source="KXBL7dC9lSTYUjsCXAN4-3" target="KXBL7dC9lSTYUjsCXAN4-4">
          <mxGeometry width="50" height="50" relative="1" as="geometry">
            <mxPoint x="500" y="350" as="sourcePoint" />
            <mxPoint x="550" y="300" as="targetPoint" />
          </mxGeometry>
        </mxCell>
        <mxCell id="KXBL7dC9lSTYUjsCXAN4-9" value="&lt;b&gt;2.Propoes&lt;/b&gt;" style="edgeLabel;html=1;align=center;verticalAlign=middle;resizable=0;points=[];" vertex="1" connectable="0" parent="KXBL7dC9lSTYUjsCXAN4-8">
          <mxGeometry x="-0.1028" relative="1" as="geometry">
            <mxPoint as="offset" />
          </mxGeometry>
        </mxCell>
        <mxCell id="KXBL7dC9lSTYUjsCXAN4-13" value="" style="endArrow=classic;html=1;entryX=0;entryY=0.5;entryDx=0;entryDy=0;fillColor=#99CCFF;strokeColor=#66B2FF;" edge="1" parent="1" source="KXBL7dC9lSTYUjsCXAN4-4" target="KXBL7dC9lSTYUjsCXAN4-3">
          <mxGeometry width="50" height="50" relative="1" as="geometry">
            <mxPoint x="500" y="350" as="sourcePoint" />
            <mxPoint x="320" y="280" as="targetPoint" />
          </mxGeometry>
        </mxCell>
        <mxCell id="KXBL7dC9lSTYUjsCXAN4-14" value="&lt;b&gt;3.ACK&lt;/b&gt;" style="edgeLabel;html=1;align=center;verticalAlign=middle;resizable=0;points=[];" vertex="1" connectable="0" parent="KXBL7dC9lSTYUjsCXAN4-13">
          <mxGeometry x="-0.0186" y="-3" relative="1" as="geometry">
            <mxPoint y="-5" as="offset" />
          </mxGeometry>
        </mxCell>
        <mxCell id="KXBL7dC9lSTYUjsCXAN4-16" value="" style="endArrow=classic;html=1;entryX=1;entryY=0.75;entryDx=0;entryDy=0;exitX=0;exitY=0.75;exitDx=0;exitDy=0;fillColor=#FF6666;strokeColor=#FF0000;" edge="1" parent="1" source="KXBL7dC9lSTYUjsCXAN4-3" target="KXBL7dC9lSTYUjsCXAN4-4">
          <mxGeometry width="50" height="50" relative="1" as="geometry">
            <mxPoint x="500" y="350" as="sourcePoint" />
            <mxPoint x="550" y="300" as="targetPoint" />
          </mxGeometry>
        </mxCell>
        <mxCell id="KXBL7dC9lSTYUjsCXAN4-17" value="&lt;b&gt;4.commit&lt;/b&gt;" style="edgeLabel;html=1;align=center;verticalAlign=middle;resizable=0;points=[];" vertex="1" connectable="0" parent="KXBL7dC9lSTYUjsCXAN4-16">
          <mxGeometry x="0.0297" relative="1" as="geometry">
            <mxPoint as="offset" />
          </mxGeometry>
        </mxCell>
        <mxCell id="KXBL7dC9lSTYUjsCXAN4-30" value="ObServer" style="rounded=1;whiteSpace=wrap;html=1;fillColor=#FFCCCC;" vertex="1" parent="1">
          <mxGeometry x="100" y="320" width="120" height="55" as="geometry" />
        </mxCell>
        <mxCell id="KXBL7dC9lSTYUjsCXAN4-31" value="ObServer" style="rounded=1;whiteSpace=wrap;html=1;fillColor=#FFCCCC;" vertex="1" parent="1">
          <mxGeometry x="600" y="322.5" width="120" height="55" as="geometry" />
        </mxCell>
        <mxCell id="KXBL7dC9lSTYUjsCXAN4-33" value="" style="endArrow=classic;html=1;exitX=0;exitY=1;exitDx=0;exitDy=0;entryX=1;entryY=0.5;entryDx=0;entryDy=0;strokeColor=#FF0000;" edge="1" parent="1" source="KXBL7dC9lSTYUjsCXAN4-3" target="KXBL7dC9lSTYUjsCXAN4-30">
          <mxGeometry width="50" height="50" relative="1" as="geometry">
            <mxPoint x="500" y="390" as="sourcePoint" />
            <mxPoint x="550" y="340" as="targetPoint" />
          </mxGeometry>
        </mxCell>
        <mxCell id="KXBL7dC9lSTYUjsCXAN4-36" value="&lt;b&gt;4.commit&lt;/b&gt;" style="edgeLabel;html=1;align=center;verticalAlign=middle;resizable=0;points=[];" vertex="1" connectable="0" parent="KXBL7dC9lSTYUjsCXAN4-33">
          <mxGeometry x="0.1155" y="-4" relative="1" as="geometry">
            <mxPoint as="offset" />
          </mxGeometry>
        </mxCell>
        <mxCell id="KXBL7dC9lSTYUjsCXAN4-37" value="&lt;b&gt;4.commit&lt;/b&gt;" style="endArrow=classic;html=1;exitX=1;exitY=1;exitDx=0;exitDy=0;entryX=0;entryY=0.5;entryDx=0;entryDy=0;strokeColor=#FF0000;" edge="1" parent="1" source="KXBL7dC9lSTYUjsCXAN4-3" target="KXBL7dC9lSTYUjsCXAN4-31">
          <mxGeometry width="50" height="50" relative="1" as="geometry">
            <mxPoint x="500" y="390" as="sourcePoint" />
            <mxPoint x="550" y="340" as="targetPoint" />
          </mxGeometry>
        </mxCell>
        <mxCell id="KXBL7dC9lSTYUjsCXAN4-43" value="&lt;font style=&quot;font-size: 14px&quot;&gt;&lt;b&gt;写Leader情况&lt;/b&gt;&lt;/font&gt;" style="text;html=1;align=center;verticalAlign=middle;resizable=0;points=[];autosize=1;strokeColor=none;fillColor=none;" vertex="1" parent="1">
          <mxGeometry x="330" y="30" width="100" height="20" as="geometry" />
        </mxCell>
        <mxCell id="KXBL7dC9lSTYUjsCXAN4-44" value="client" style="rounded=1;whiteSpace=wrap;html=1;fillColor=#97D077;" vertex="1" parent="1">
          <mxGeometry x="90" y="70" width="120" height="60" as="geometry" />
        </mxCell>
        <mxCell id="KXBL7dC9lSTYUjsCXAN4-47" value="" style="edgeStyle=orthogonalEdgeStyle;rounded=0;orthogonalLoop=1;jettySize=auto;html=1;fillColor=#99CCFF;strokeColor=#66B2FF;" edge="1" parent="1" source="KXBL7dC9lSTYUjsCXAN4-49" target="KXBL7dC9lSTYUjsCXAN4-56">
          <mxGeometry relative="1" as="geometry" />
        </mxCell>
        <mxCell id="KXBL7dC9lSTYUjsCXAN4-48" value="&lt;b&gt;4.ACK&lt;/b&gt;" style="edgeLabel;html=1;align=center;verticalAlign=middle;resizable=0;points=[];" vertex="1" connectable="0" parent="KXBL7dC9lSTYUjsCXAN4-47">
          <mxGeometry x="-0.1395" relative="1" as="geometry">
            <mxPoint as="offset" />
          </mxGeometry>
        </mxCell>
        <mxCell id="KXBL7dC9lSTYUjsCXAN4-49" value="follower" style="rounded=1;whiteSpace=wrap;html=1;fillColor=#99CCFF;" vertex="1" parent="1">
          <mxGeometry x="600" y="680" width="120" height="60" as="geometry" />
        </mxCell>
        <mxCell id="KXBL7dC9lSTYUjsCXAN4-50" style="edgeStyle=orthogonalEdgeStyle;rounded=0;orthogonalLoop=1;jettySize=auto;html=1;exitX=1;exitY=0.25;exitDx=0;exitDy=0;entryX=0;entryY=0.25;entryDx=0;entryDy=0;strokeColor=#CC99FF;" edge="1" parent="1" source="KXBL7dC9lSTYUjsCXAN4-56" target="KXBL7dC9lSTYUjsCXAN4-49">
          <mxGeometry relative="1" as="geometry" />
        </mxCell>
        <mxCell id="KXBL7dC9lSTYUjsCXAN4-51" value="&lt;b&gt;3.Propoes&lt;/b&gt;" style="edgeLabel;html=1;align=center;verticalAlign=middle;resizable=0;points=[];" vertex="1" connectable="0" parent="KXBL7dC9lSTYUjsCXAN4-50">
          <mxGeometry x="-0.0233" y="2" relative="1" as="geometry">
            <mxPoint y="1" as="offset" />
          </mxGeometry>
        </mxCell>
        <mxCell id="KXBL7dC9lSTYUjsCXAN4-52" style="edgeStyle=orthogonalEdgeStyle;rounded=0;orthogonalLoop=1;jettySize=auto;html=1;exitX=1;exitY=0.75;exitDx=0;exitDy=0;entryX=0;entryY=0.75;entryDx=0;entryDy=0;strokeColor=#FF0000;" edge="1" parent="1" source="KXBL7dC9lSTYUjsCXAN4-56" target="KXBL7dC9lSTYUjsCXAN4-49">
          <mxGeometry relative="1" as="geometry" />
        </mxCell>
        <mxCell id="KXBL7dC9lSTYUjsCXAN4-53" value="&lt;b&gt;5.commit&lt;/b&gt;" style="edgeLabel;html=1;align=center;verticalAlign=middle;resizable=0;points=[];" vertex="1" connectable="0" parent="KXBL7dC9lSTYUjsCXAN4-52">
          <mxGeometry x="0.0233" y="-1" relative="1" as="geometry">
            <mxPoint y="1" as="offset" />
          </mxGeometry>
        </mxCell>
        <mxCell id="KXBL7dC9lSTYUjsCXAN4-56" value="&lt;b&gt;leader(过半ACK后就发送commit)&lt;/b&gt;" style="rounded=1;whiteSpace=wrap;html=1;fillColor=#FF66FF;" vertex="1" parent="1">
          <mxGeometry x="354" y="682.5" width="120" height="57.5" as="geometry" />
        </mxCell>
        <mxCell id="KXBL7dC9lSTYUjsCXAN4-72" style="edgeStyle=orthogonalEdgeStyle;rounded=0;orthogonalLoop=1;jettySize=auto;html=1;exitX=0.75;exitY=0;exitDx=0;exitDy=0;entryX=0.75;entryY=1;entryDx=0;entryDy=0;strokeColor=#99CCFF;fillColor=#99CCFF;" edge="1" parent="1" source="KXBL7dC9lSTYUjsCXAN4-57" target="KXBL7dC9lSTYUjsCXAN4-70">
          <mxGeometry relative="1" as="geometry" />
        </mxCell>
        <mxCell id="KXBL7dC9lSTYUjsCXAN4-75" value="6.&lt;b&gt;response&lt;/b&gt;" style="edgeLabel;html=1;align=center;verticalAlign=middle;resizable=0;points=[];" vertex="1" connectable="0" parent="KXBL7dC9lSTYUjsCXAN4-72">
          <mxGeometry x="-0.0074" y="1" relative="1" as="geometry">
            <mxPoint as="offset" />
          </mxGeometry>
        </mxCell>
        <mxCell id="KXBL7dC9lSTYUjsCXAN4-80" style="edgeStyle=orthogonalEdgeStyle;rounded=0;orthogonalLoop=1;jettySize=auto;html=1;exitX=1;exitY=0;exitDx=0;exitDy=0;entryX=0;entryY=0;entryDx=0;entryDy=0;strokeColor=#99CCFF;fillColor=#99CCFF;" edge="1" parent="1" source="KXBL7dC9lSTYUjsCXAN4-57" target="KXBL7dC9lSTYUjsCXAN4-56">
          <mxGeometry relative="1" as="geometry">
            <Array as="points">
              <mxPoint x="354" y="683" />
            </Array>
          </mxGeometry>
        </mxCell>
        <mxCell id="KXBL7dC9lSTYUjsCXAN4-81" value="&lt;b&gt;2.requset&lt;/b&gt;" style="edgeLabel;html=1;align=center;verticalAlign=middle;resizable=0;points=[];" vertex="1" connectable="0" parent="KXBL7dC9lSTYUjsCXAN4-80">
          <mxGeometry x="-0.1756" y="1" relative="1" as="geometry">
            <mxPoint x="15" y="1" as="offset" />
          </mxGeometry>
        </mxCell>
        <mxCell id="KXBL7dC9lSTYUjsCXAN4-57" value="follower" style="rounded=1;whiteSpace=wrap;html=1;fillColor=#99CCFF;" vertex="1" parent="1">
          <mxGeometry x="100" y="682.5" width="120" height="55" as="geometry" />
        </mxCell>
        <mxCell id="KXBL7dC9lSTYUjsCXAN4-58" value="" style="endArrow=classic;html=1;exitX=0;exitY=0.25;exitDx=0;exitDy=0;entryX=1;entryY=0.25;entryDx=0;entryDy=0;strokeColor=#CC99FF;" edge="1" parent="1" source="KXBL7dC9lSTYUjsCXAN4-56" target="KXBL7dC9lSTYUjsCXAN4-57">
          <mxGeometry width="50" height="50" relative="1" as="geometry">
            <mxPoint x="500" y="790" as="sourcePoint" />
            <mxPoint x="550" y="740" as="targetPoint" />
          </mxGeometry>
        </mxCell>
        <mxCell id="KXBL7dC9lSTYUjsCXAN4-59" value="&lt;b&gt;3.Propoes&lt;/b&gt;" style="edgeLabel;html=1;align=center;verticalAlign=middle;resizable=0;points=[];" vertex="1" connectable="0" parent="KXBL7dC9lSTYUjsCXAN4-58">
          <mxGeometry x="-0.1028" relative="1" as="geometry">
            <mxPoint as="offset" />
          </mxGeometry>
        </mxCell>
        <mxCell id="KXBL7dC9lSTYUjsCXAN4-60" value="" style="endArrow=classic;html=1;entryX=0;entryY=0.5;entryDx=0;entryDy=0;fillColor=#99CCFF;strokeColor=#66B2FF;" edge="1" parent="1" source="KXBL7dC9lSTYUjsCXAN4-57" target="KXBL7dC9lSTYUjsCXAN4-56">
          <mxGeometry width="50" height="50" relative="1" as="geometry">
            <mxPoint x="500" y="790" as="sourcePoint" />
            <mxPoint x="320" y="720" as="targetPoint" />
          </mxGeometry>
        </mxCell>
        <mxCell id="KXBL7dC9lSTYUjsCXAN4-61" value="&lt;b&gt;4.ACK&lt;/b&gt;" style="edgeLabel;html=1;align=center;verticalAlign=middle;resizable=0;points=[];" vertex="1" connectable="0" parent="KXBL7dC9lSTYUjsCXAN4-60">
          <mxGeometry x="-0.0186" y="-3" relative="1" as="geometry">
            <mxPoint y="-5" as="offset" />
          </mxGeometry>
        </mxCell>
        <mxCell id="KXBL7dC9lSTYUjsCXAN4-62" value="" style="endArrow=classic;html=1;entryX=1;entryY=0.75;entryDx=0;entryDy=0;exitX=0;exitY=0.75;exitDx=0;exitDy=0;fillColor=#FF6666;strokeColor=#FF0000;" edge="1" parent="1" source="KXBL7dC9lSTYUjsCXAN4-56" target="KXBL7dC9lSTYUjsCXAN4-57">
          <mxGeometry width="50" height="50" relative="1" as="geometry">
            <mxPoint x="500" y="790" as="sourcePoint" />
            <mxPoint x="550" y="740" as="targetPoint" />
          </mxGeometry>
        </mxCell>
        <mxCell id="KXBL7dC9lSTYUjsCXAN4-63" value="&lt;b&gt;5.commit&lt;/b&gt;" style="edgeLabel;html=1;align=center;verticalAlign=middle;resizable=0;points=[];" vertex="1" connectable="0" parent="KXBL7dC9lSTYUjsCXAN4-62">
          <mxGeometry x="0.0297" relative="1" as="geometry">
            <mxPoint as="offset" />
          </mxGeometry>
        </mxCell>
        <mxCell id="KXBL7dC9lSTYUjsCXAN4-85" style="edgeStyle=orthogonalEdgeStyle;rounded=0;orthogonalLoop=1;jettySize=auto;html=1;exitX=0.75;exitY=1;exitDx=0;exitDy=0;entryX=0.75;entryY=0;entryDx=0;entryDy=0;strokeColor=#FFCCCC;fillColor=#FFCCCC;" edge="1" parent="1" source="KXBL7dC9lSTYUjsCXAN4-64" target="KXBL7dC9lSTYUjsCXAN4-83">
          <mxGeometry relative="1" as="geometry" />
        </mxCell>
        <mxCell id="KXBL7dC9lSTYUjsCXAN4-86" value="6.&lt;b&gt;response&lt;/b&gt;" style="edgeLabel;html=1;align=center;verticalAlign=middle;resizable=0;points=[];" vertex="1" connectable="0" parent="KXBL7dC9lSTYUjsCXAN4-85">
          <mxGeometry x="0.0458" relative="1" as="geometry">
            <mxPoint as="offset" />
          </mxGeometry>
        </mxCell>
        <mxCell id="KXBL7dC9lSTYUjsCXAN4-64" value="ObServer" style="rounded=1;whiteSpace=wrap;html=1;fillColor=#FFCCCC;" vertex="1" parent="1">
          <mxGeometry x="100" y="760" width="120" height="55" as="geometry" />
        </mxCell>
        <mxCell id="KXBL7dC9lSTYUjsCXAN4-65" value="ObServer" style="rounded=1;whiteSpace=wrap;html=1;fillColor=#FFCCCC;" vertex="1" parent="1">
          <mxGeometry x="600" y="762.5" width="120" height="55" as="geometry" />
        </mxCell>
        <mxCell id="KXBL7dC9lSTYUjsCXAN4-66" value="" style="endArrow=classic;html=1;exitX=0;exitY=1;exitDx=0;exitDy=0;entryX=1;entryY=0.5;entryDx=0;entryDy=0;strokeColor=#FF0000;" edge="1" parent="1" source="KXBL7dC9lSTYUjsCXAN4-56" target="KXBL7dC9lSTYUjsCXAN4-64">
          <mxGeometry width="50" height="50" relative="1" as="geometry">
            <mxPoint x="500" y="830" as="sourcePoint" />
            <mxPoint x="550" y="780" as="targetPoint" />
          </mxGeometry>
        </mxCell>
        <mxCell id="KXBL7dC9lSTYUjsCXAN4-67" value="&lt;b&gt;5.commit&lt;/b&gt;" style="edgeLabel;html=1;align=center;verticalAlign=middle;resizable=0;points=[];" vertex="1" connectable="0" parent="KXBL7dC9lSTYUjsCXAN4-66">
          <mxGeometry x="0.1155" y="-4" relative="1" as="geometry">
            <mxPoint as="offset" />
          </mxGeometry>
        </mxCell>
        <mxCell id="KXBL7dC9lSTYUjsCXAN4-68" value="&lt;b&gt;5.commit&lt;/b&gt;" style="endArrow=classic;html=1;exitX=1;exitY=1;exitDx=0;exitDy=0;entryX=0;entryY=0.5;entryDx=0;entryDy=0;strokeColor=#FF0000;" edge="1" parent="1" source="KXBL7dC9lSTYUjsCXAN4-56" target="KXBL7dC9lSTYUjsCXAN4-65">
          <mxGeometry width="50" height="50" relative="1" as="geometry">
            <mxPoint x="500" y="830" as="sourcePoint" />
            <mxPoint x="550" y="780" as="targetPoint" />
          </mxGeometry>
        </mxCell>
        <mxCell id="KXBL7dC9lSTYUjsCXAN4-69" value="&lt;font style=&quot;font-size: 14px&quot;&gt;&lt;b&gt;写Follower/ObServer情况&lt;/b&gt;&lt;/font&gt;" style="text;html=1;align=center;verticalAlign=middle;resizable=0;points=[];autosize=1;strokeColor=none;fillColor=none;" vertex="1" parent="1">
          <mxGeometry x="290" y="470" width="180" height="20" as="geometry" />
        </mxCell>
        <mxCell id="KXBL7dC9lSTYUjsCXAN4-74" value="&lt;b&gt;1.request&lt;/b&gt;" style="edgeStyle=orthogonalEdgeStyle;rounded=0;orthogonalLoop=1;jettySize=auto;html=1;exitX=0.25;exitY=1;exitDx=0;exitDy=0;entryX=0.25;entryY=0;entryDx=0;entryDy=0;strokeColor=#97D077;fillColor=#99CCFF;" edge="1" parent="1" source="KXBL7dC9lSTYUjsCXAN4-70" target="KXBL7dC9lSTYUjsCXAN4-57">
          <mxGeometry relative="1" as="geometry" />
        </mxCell>
        <mxCell id="KXBL7dC9lSTYUjsCXAN4-70" value="client" style="rounded=1;whiteSpace=wrap;html=1;fillColor=#97D077;" vertex="1" parent="1">
          <mxGeometry x="100" y="510" width="120" height="60" as="geometry" />
        </mxCell>
        <mxCell id="KXBL7dC9lSTYUjsCXAN4-82" value="6.&lt;b&gt;response&lt;/b&gt;" style="edgeLabel;html=1;align=center;verticalAlign=middle;resizable=0;points=[];" vertex="1" connectable="0" parent="1">
          <mxGeometry x="188.9999999999999" y="986.6379310344828" as="geometry" />
        </mxCell>
        <mxCell id="KXBL7dC9lSTYUjsCXAN4-84" style="edgeStyle=orthogonalEdgeStyle;rounded=0;orthogonalLoop=1;jettySize=auto;html=1;exitX=0.25;exitY=0;exitDx=0;exitDy=0;entryX=0.25;entryY=1;entryDx=0;entryDy=0;strokeColor=#97D077;fillColor=#99CCFF;" edge="1" parent="1" source="KXBL7dC9lSTYUjsCXAN4-83" target="KXBL7dC9lSTYUjsCXAN4-64">
          <mxGeometry relative="1" as="geometry" />
        </mxCell>
        <mxCell id="KXBL7dC9lSTYUjsCXAN4-87" value="&lt;b&gt;1.request&lt;/b&gt;" style="edgeLabel;html=1;align=center;verticalAlign=middle;resizable=0;points=[];" vertex="1" connectable="0" parent="KXBL7dC9lSTYUjsCXAN4-84">
          <mxGeometry x="0.0295" relative="1" as="geometry">
            <mxPoint as="offset" />
          </mxGeometry>
        </mxCell>
        <mxCell id="KXBL7dC9lSTYUjsCXAN4-83" value="client" style="rounded=1;whiteSpace=wrap;html=1;fillColor=#97D077;" vertex="1" parent="1">
          <mxGeometry x="100" y="920" width="120" height="60" as="geometry" />
        </mxCell>
      </root>
    </mxGraphModel>
  </diagram>
</mxfile>
